<svg xmlns="http://www.w3.org/2000/svg" xmlns:xlink="http://www.w3.org/1999/xlink" preserveAspectRatio="xMidYMid meet" version="1.0" viewBox="0.0 -0.9 1920.0 1080.9" zoomAndPan="magnify" style="fill: rgb(0, 0, 0);" original_string_length="1715"><g><linearGradient xmlns:xlink="http://www.w3.org/1999/xlink" gradientUnits="userSpaceOnUse" id="__id37_so00l2nvoj" x1="210" x2="1710" xlink:actuate="onLoad" xlink:show="other" xlink:type="simple" y1="-210" y2="1290"><stop offset="0" style="stop-color: rgb(82, 119, 225);"/><stop offset=".522" style="stop-color: rgb(41, 88, 188);"/><stop offset="1" style="stop-color: rgb(0, 56, 150);"/></linearGradient><path d="M0 0H1920V1080H0z" style="fill: url(&quot;#__id37_so00l2nvoj&quot;);"/><linearGradient xmlns:xlink="http://www.w3.org/1999/xlink" gradientUnits="userSpaceOnUse" id="__id38_so00l2nvoj" x1="445.59" x2="1273.049" xlink:actuate="onLoad" xlink:show="other" xlink:type="simple" y1="657.361" y2="-170.098"><stop offset="0" style="stop-color: rgb(82, 119, 225);"/><stop offset=".522" style="stop-color: rgb(41, 88, 188);"/><stop offset="1" style="stop-color: rgb(0, 56, 150);"/></linearGradient><path d="M276.43-0.94 c-21.62,62.86-33.37,130.31-33.37,200.51c0,340.35,275.91,616.25,616.25,616.25s616.25-275.91,616.25-616.25 c0-70.2-11.75-137.65-33.37-200.51H276.43z" opacity=".8" style="fill: url(&quot;#__id38_so00l2nvoj&quot;);"/><linearGradient xmlns:xlink="http://www.w3.org/1999/xlink" gradientUnits="userSpaceOnUse" id="__id39_so00l2nvoj" x1="1920" x2="0" xlink:actuate="onLoad" xlink:show="other" xlink:type="simple" y1="701.322" y2="701.322"><stop offset="0" style="stop-color: rgb(82, 119, 225);"/><stop offset=".455" style="stop-color: rgb(41, 88, 188);"/><stop offset="1" style="stop-color: rgb(0, 56, 150);"/></linearGradient><path d="M0,1080h1920l-0.47-250.55 c0,0-121.56-506.81-555.2-506.81c-429.33,0-576.1,437.35-870.68,485.21C209.83,853.97,0.27,565.93,0.27,565.93L0,1080z" opacity=".8" style="fill: url(&quot;#__id39_so00l2nvoj&quot;);"/></g></svg>